<svg width="50" height="50" viewBox="0 0 50 50" fill="none" xmlns="http://www.w3.org/2000/svg">
<rect width="50" height="50" rx="10" fill="url(#paint0_linear_34_1863)"/>
<path d="M5.91101 22.4572V20.5319H8.55457C9.04294 20.5319 9.42515 20.3898 9.70118 20.1058C9.97722 19.8217 10.1152 19.4745 10.1152 19.0642C10.1152 18.7801 10.0515 18.5276 9.92413 18.3067C9.79673 18.0858 9.61625 17.9122 9.38268 17.7859C9.15973 17.6597 8.88369 17.5966 8.55457 17.5966H5.91101V15.7186H8.34755C8.7616 15.7186 9.09603 15.6186 9.35083 15.4187C9.60563 15.2083 9.73303 14.8927 9.73303 14.4719C9.73303 14.0616 9.60563 13.7565 9.35083 13.5566C9.09603 13.3461 8.7616 13.2409 8.34755 13.2409H5.91101V11.3156H8.8253C9.54724 11.3156 10.1577 11.4471 10.6567 11.7102C11.1663 11.9732 11.5538 12.3256 11.8192 12.7675C12.0846 13.2094 12.2173 13.6986 12.2173 14.2352C12.2173 14.919 11.9944 15.4977 11.5485 15.9711C11.1026 16.4445 10.4444 16.7707 9.57378 16.9495L9.63748 16.1131C10.5824 16.292 11.3096 16.6549 11.8192 17.202C12.3394 17.7491 12.5995 18.4224 12.5995 19.222C12.5995 19.8322 12.4456 20.3846 12.1377 20.8791C11.8404 21.363 11.4052 21.747 10.8319 22.0311C10.2692 22.3151 9.5897 22.4572 8.79345 22.4572H5.91101ZM4 22.4572V11.3156H6.46839V22.4572H4Z" fill="white"/>
<path d="M17.7055 22.6308C16.9093 22.6308 16.1873 22.4572 15.5397 22.11C14.9027 21.7523 14.3984 21.2683 14.0268 20.6581C13.6552 20.0479 13.4695 19.3641 13.4695 18.6066C13.4695 17.8491 13.6552 17.1705 14.0268 16.5708C14.3984 15.9711 14.9027 15.4977 15.5397 15.1505C16.1767 14.7928 16.8987 14.6139 17.7055 14.6139C18.5124 14.6139 19.2343 14.7875 19.8713 15.1347C20.5083 15.4819 21.0126 15.9606 21.3842 16.5708C21.7558 17.1705 21.9416 17.8491 21.9416 18.6066C21.9416 19.3641 21.7558 20.0479 21.3842 20.6581C21.0126 21.2683 20.5083 21.7523 19.8713 22.11C19.2343 22.4572 18.5124 22.6308 17.7055 22.6308ZM17.7055 20.4372C18.0559 20.4372 18.3638 20.3635 18.6292 20.2162C18.8946 20.0584 19.0963 19.8428 19.2343 19.5692C19.383 19.2851 19.4573 18.9643 19.4573 18.6066C19.4573 18.2488 19.383 17.9385 19.2343 17.6755C19.0857 17.4019 18.8787 17.1915 18.6133 17.0442C18.3585 16.8864 18.0559 16.8075 17.7055 16.8075C17.3658 16.8075 17.0632 16.8864 16.7978 17.0442C16.5324 17.1915 16.3254 17.4019 16.1767 17.6755C16.0281 17.949 15.9538 18.2646 15.9538 18.6223C15.9538 18.9695 16.0281 19.2851 16.1767 19.5692C16.3254 19.8428 16.5324 20.0584 16.7978 20.2162C17.0632 20.3635 17.3658 20.4372 17.7055 20.4372Z" fill="white"/>
<path d="M23.1546 22.4572V11H25.5912V22.4572H23.1546Z" fill="white"/>
<path d="M30.5398 22.615C29.8285 22.615 29.1915 22.4414 28.6288 22.0942C28.0767 21.747 27.6361 21.2736 27.307 20.6739C26.9885 20.0742 26.8292 19.3904 26.8292 18.6223C26.8292 17.8543 26.9885 17.1705 27.307 16.5708C27.6361 15.9711 28.0767 15.4977 28.6288 15.1505C29.1915 14.8033 29.8285 14.6297 30.5398 14.6297C31.06 14.6297 31.5271 14.7296 31.9412 14.9295C32.3659 15.1294 32.7109 15.4082 32.9763 15.7659C33.2417 16.1131 33.3904 16.5129 33.4222 16.9653V20.2794C33.3904 20.7318 33.2417 21.1368 32.9763 21.4945C32.7215 21.8417 32.3818 22.1152 31.9571 22.3151C31.5324 22.515 31.06 22.615 30.5398 22.615ZM31.0335 20.4372C31.5537 20.4372 31.973 20.2688 32.2915 19.9322C32.61 19.585 32.7693 19.1484 32.7693 18.6223C32.7693 18.2646 32.695 17.949 32.5463 17.6755C32.4083 17.4019 32.2066 17.1915 31.9412 17.0442C31.6864 16.8864 31.3891 16.8075 31.0494 16.8075C30.7096 16.8075 30.4071 16.8864 30.1416 17.0442C29.8868 17.1915 29.6798 17.4019 29.5206 17.6755C29.3719 17.949 29.2976 18.2646 29.2976 18.6223C29.2976 18.9695 29.3719 19.2799 29.5206 19.5534C29.6692 19.827 29.8762 20.0426 30.1416 20.2005C30.4071 20.3583 30.7043 20.4372 31.0335 20.4372ZM32.6737 22.4572V20.3898L33.04 18.5276L32.6737 16.6655V14.7875H35.0625V22.4572H32.6737Z" fill="white"/>
<path d="M15.7209 36.0502C15.1206 36.0502 14.5834 35.9142 14.1095 35.6423C13.6355 35.3599 13.2616 34.9781 12.9878 34.4969C12.7245 34.0157 12.5928 33.4509 12.5928 32.8023V28.5189H13.7145V32.7553C13.7145 33.2051 13.7935 33.5973 13.9515 33.932C14.12 34.2668 14.357 34.5283 14.6624 34.7166C14.9678 34.9048 15.3207 34.999 15.7209 34.999C16.3423 34.999 16.8321 34.795 17.1902 34.3871C17.5588 33.9791 17.7431 33.4352 17.7431 32.7553V28.5189H18.849V32.8023C18.849 33.4404 18.7174 34.0053 18.4541 34.4969C18.1908 34.9885 17.8221 35.3703 17.3482 35.6423C16.8742 35.9142 16.3318 36.0502 15.7209 36.0502Z" fill="white"/>
<path d="M24.0728 36.0502C23.3882 36.0502 22.7721 35.8829 22.2244 35.5481C21.6767 35.2134 21.2396 34.7584 20.9131 34.1831C20.5971 33.5973 20.4391 32.9436 20.4391 32.2218C20.4391 31.4896 20.5971 30.8358 20.9131 30.2605C21.2396 29.6747 21.6767 29.2145 22.2244 28.8798C22.7721 28.5346 23.3882 28.362 24.0728 28.362C24.631 28.362 25.1366 28.4718 25.5895 28.6915C26.0424 28.9112 26.4163 29.225 26.7112 29.6329C27.0166 30.0304 27.1957 30.5011 27.2483 31.045V33.3515C27.1851 33.885 27.0061 34.3557 26.7112 34.7636C26.4268 35.1611 26.0582 35.4749 25.6053 35.705C25.1524 35.9352 24.6416 36.0502 24.0728 36.0502ZM24.2624 34.999C24.7785 34.999 25.2314 34.8839 25.6211 34.6538C26.0108 34.4132 26.3162 34.0837 26.5374 33.6653C26.7586 33.2364 26.8692 32.75 26.8692 32.2061C26.8692 31.6517 26.7533 31.1653 26.5216 30.7469C26.3004 30.3285 25.995 29.999 25.6053 29.7584C25.2156 29.5178 24.7627 29.3976 24.2466 29.3976C23.7305 29.3976 23.2723 29.5178 22.8721 29.7584C22.4719 29.999 22.1559 30.3337 21.9242 30.7626C21.703 31.181 21.5924 31.6622 21.5924 32.2061C21.5924 32.75 21.703 33.2364 21.9242 33.6653C22.1559 34.0837 22.4719 34.4132 22.8721 34.6538C23.2829 34.8839 23.7463 34.999 24.2624 34.999ZM27.9119 35.8933H26.806V33.9164L27.0271 32.0963L26.806 30.3233V24.7846H27.9119V35.8933Z" fill="white"/>
<path d="M33.3144 36.0502C32.6298 36.0502 32.0136 35.8829 31.4659 35.5481C30.9182 35.2134 30.4811 34.7584 30.1546 34.1831C29.8387 33.5973 29.6807 32.9436 29.6807 32.2218C29.6807 31.4896 29.8387 30.8358 30.1546 30.2605C30.4811 29.6747 30.9182 29.2145 31.4659 28.8798C32.0136 28.5346 32.6298 28.362 33.3144 28.362C33.8726 28.362 34.3781 28.4718 34.831 28.6915C35.2839 28.9112 35.6578 29.225 35.9527 29.6329C36.2582 30.0304 36.4372 30.5011 36.4899 31.045V33.3515C36.4267 33.885 36.2476 34.3557 35.9527 34.7636C35.6683 35.1611 35.2997 35.4749 34.8468 35.705C34.3939 35.9352 33.8831 36.0502 33.3144 36.0502ZM33.5039 34.999C34.02 34.999 34.4729 34.8839 34.8626 34.6538C35.2523 34.4132 35.5578 34.0837 35.7789 33.6653C36.0001 33.2364 36.1107 32.75 36.1107 32.2061C36.1107 31.6517 35.9949 31.1653 35.7631 30.7469C35.542 30.3285 35.2365 29.999 34.8468 29.7584C34.4571 29.5178 34.0042 29.3976 33.4881 29.3976C32.9721 29.3976 32.5139 29.5178 32.1137 29.7584C31.7134 29.999 31.3975 30.3337 31.1658 30.7626C30.9446 31.181 30.834 31.6622 30.834 32.2061C30.834 32.75 30.9446 33.2364 31.1658 33.6653C31.3975 34.0837 31.7134 34.4132 32.1137 34.6538C32.5244 34.8839 32.9879 34.999 33.5039 34.999ZM37.1534 35.8933H36.0475V33.9164L36.2687 32.0963L36.0475 30.3233V24.7846H37.1534V35.8933Z" fill="white"/>
<path d="M41.8766 35.9247L38.6221 28.5189H39.8386L42.4611 34.7009H42.003L44.7677 28.5189H46L42.5085 35.9247H41.8766ZM39.8544 39L41.8924 34.8107L42.5085 35.9247L41.0708 39H39.8544Z" fill="white"/>
<path d="M4.74253 36.04V35.0201H8.18662C8.90283 35.0201 9.46631 34.8214 9.87707 34.4239C10.2878 34.0264 10.4932 33.5295 10.4932 32.9333C10.4932 32.5463 10.4037 32.1958 10.2246 31.882C10.0456 31.5682 9.78755 31.3224 9.45051 31.1446C9.124 30.9563 8.73431 30.8622 8.28141 30.8622H4.74253V29.858H8.10763C8.69744 29.858 9.16087 29.7011 9.49791 29.3873C9.84547 29.0735 10.0193 28.6289 10.0193 28.0536C10.0193 27.4783 9.83494 27.0337 9.46631 26.7199C9.09767 26.4061 8.60265 26.2492 7.98124 26.2492H4.74253V25.2451H8.01284C8.68691 25.2451 9.26093 25.3653 9.73488 25.6059C10.2088 25.8465 10.5669 26.1708 10.8092 26.5787C11.0514 26.9867 11.1726 27.4469 11.1726 27.9595C11.1726 28.5662 11.0146 29.0892 10.6986 29.5285C10.3826 29.9574 9.9192 30.2869 9.30832 30.517L9.41891 30.1404C10.1246 30.3601 10.6723 30.721 11.062 31.223C11.4622 31.7251 11.6623 32.3214 11.6623 33.0117C11.6623 33.587 11.5201 34.1048 11.2357 34.5651C10.9619 35.0149 10.5564 35.3757 10.0193 35.6477C9.49264 35.9092 8.85543 36.04 8.10763 36.04H4.74253ZM4 36.04V25.2451H5.1533V36.04H4Z" fill="white"/>
<defs>
<linearGradient id="paint0_linear_34_1863" x1="0" y1="25" x2="50" y2="25" gradientUnits="userSpaceOnUse">
<stop stop-color="#DD6600"/>
<stop offset="1" stop-color="#EF5457"/>
</linearGradient>
</defs>
</svg>
